<?xml version="1.0" encoding="utf-8"?>
<!-- Generator: Adobe Illustrator 18.1.1, SVG Export Plug-In . SVG Version: 6.00 Build 0)  -->
<svg version="1.1" xmlns="http://www.w3.org/2000/svg" xmlns:xlink="http://www.w3.org/1999/xlink" x="0px" y="0px"
	 viewBox="0 0 447.9 480" enable-background="new 0 0 447.9 480" xml:space="preserve">
<g id="Background" display="none">
	<rect x="-109.6" y="-137" display="inline" fill="#010101" width="1045" height="950"/>
</g>
<g id="Hair_Border">
</g>
<g id="Circle">
</g>
<g id="Layer_5">
	<rect x="75" y="72.6" fill="#DEDDDD" stroke="#FFFFFF" stroke-width="20" stroke-miterlimit="10" width="291.4" height="197.7"/>
</g>
<g id="Square_face">
	<path fill="#010101" d="M-884,1301.9c-0.3,0.1-0.5,0.3-0.8,0.4c0.6-0.2,1.2-0.3,1.8-0.5c0.7-0.6,1.4-1.2,2.1-1.8
		C-881.9,1300.7-883,1301.3-884,1301.9L-884,1301.9z"/>
	<path fill="#010101" d="M1521.9-666.8c0,0.5,0.5,1,1,1s1-0.5,1-1s-0.5-1-1-1S1521.9-667.4,1521.9-666.8L1521.9-666.8z"/>
	<path fill="#010101" stroke="#FFFFFF" stroke-width="20" stroke-miterlimit="10" d="M371.7,182.3
		C371.7,182.3,371.7,182.3,371.7,182.3c3-7.1,5.2-13.2,7-19c2.8-8.9,4.6-17.7,5.4-26.2c0.9-9.5,0.3-18.7-1.7-27.4
		c-2.1-9.2-6-17.8-9.8-26.2l-0.2-0.5c-0.9-2-1.8-4-2.6-6c-0.4-1.1-0.9-2.1-1.3-3.2c-2.6-6.4-5.4-13-9.4-18.8
		c-2.3-3.4-5.1-6.2-7.5-8.6c-2.3-2.3-4.9-4.6-7.7-6.8c-10-8-22.1-14.3-36.1-18.9c-11.8-3.9-25.3-6.5-41.3-8.1
		c-11.2-1.1-23.4-1.6-38.6-1.6c-1.4,0-2.8,0-4.2,0c-7.3,0-14.8,0.2-22,0.3c-6.2,0.1-12.6,0.3-18.9,0.3c-1.2,0-2.4,0-3.7,0
		c-5.1,0-10.7-0.1-17-0.3l-1.2,0c-5.7-0.2-11.5-0.4-17.3-0.4c-1.2,0-2.3,0-3.5,0c-13,0.2-23.2,1.5-32.2,4.2
		c-5.3,1.6-10.3,3.8-14.8,6.5c-2.3,1.4-3.8,1.7-6.6,3.6c-0.1,0.1-0.1,0.1-0.2,0.1c-0.7,0.5-1.3,1.1-2,1.6c-0.8,0.7-1.6,1.5-2.4,2.2
		c-1.5,1.5-3,3-4.3,4.7c0,0,0,0,0,0v0v0c-1.7,2.2-3.1,4.5-4.5,6.9c-0.4,0.7-0.8,1.4-1,2.2c-1.3,3.7-2.1,7.9-2.5,12.5
		c-0.6,7.4,0,14.9,0.6,22.1c0.3,3.4,0.6,6.9,0.7,10.4c0.2,5.4,0.1,9.7-0.4,13.7c-0.3,2.1-0.7,4-1.2,5.9c-0.7,2.5-1.7,4.9-2.5,6.9
		l-0.4,0.9c-1.4,3.4-2.9,6.9-3.8,10.6c-1.1,4.7-1,9.7-0.9,14.5l0,1.1c0,0.7,0,1.5,0,2.2c0,4.2,0.1,8.6,1,12.8
		c0.8,3.6,2.3,7,3.7,10.4c0.2,0.4,0.4,0.9,0.6,1.3c0.4,0.9,0.7,1.8,1,2.6c0.1,0.3,0.2,0.5,0.4,0.8c0.8,1.7,1.4,3.2,1.8,4.7
		c0,0,0,0,0,0L371.7,182.3z"/>
	<circle fill="#DEDDDD" stroke="#FFFFFF" stroke-width="20" stroke-miterlimit="10" cx="223.3" cy="256.3" r="213.2"/>
	<g>
		<path fill="#010101" d="M265.4,381.8c-2.7,1.6-5.6,3-8.9,4.1c-5.3,1.7-11.2,2.7-18.1,3.2c-5.7,0.3-11.5,0.2-17.8-0.3
			c-12.9-1-25.8-3.5-37.8-6c0,0,0,0,0,0c0,0,0,0,0,0c-0.2,0-0.5-0.1-0.7-0.1c-0.6,0-1,0-1.5,0.3c-0.7,0.4-1.3,1-1.6,1.8
			c-0.3,0.8-0.2,1.7,0.1,2.5c0.3,0.7,1,1.4,1.8,1.6c12.5,2.7,26,5.3,39.8,6.3c1.6,0.1,3.1,0.2,4.7,0.3c8.5,0.4,16.1,0.1,23.2-1.1
			c7.6-1.2,14.3-3.5,19.7-6.9c0.6-0.4,1.3-0.9,1.6-1.8c0.3-0.8,0.2-1.7-0.1-2.5c-0.5-1-1.6-1.7-2.7-1.8
			C266.4,381.4,265.9,381.5,265.4,381.8L265.4,381.8z"/>
		<path fill="#010101" d="M367.5,303.3c0.2-2.4,0.4-4.6,0.6-6.6c0.5-4.9,1.1-9.8,1.7-14.6c0.2-1.4,0.4-2.9,0.5-4.3
			c0-1.1,0-2.1,0.2-3.1l0-0.2c0.2-1.3,0.4-2.4,0.6-3.4c1.1-9.7,1.6-17.8,1.7-25.6c0.1-7.4-0.7-15-1.5-22.3c-0.6-5.6-1.2-11.3-1.4-17
			c0.2,0.1,0.4,0.2,0.7,0.3c2.5,0.6,4.6,1.3,6.6,2.1c1.8,0.8,3.4,1.7,4.8,2.7c0.9,0.7,1.7,1.5,2.4,2.4c0.6,0.9,1.1,1.8,1.6,2.7
			c0.5,1.3,0.9,2.6,1.1,4.1c0.2,2.3,0.2,4.5,0,6.4c-0.2,2.8-0.5,5.9-1,9.7c-0.8,6-1.9,12-3,17.8c-0.5,2.6-1,5.4-1.4,8
			c-0.1,0.4-0.1,0.8-0.2,1.2c-0.3,1.8-0.7,3.8-0.8,5.7c-0.1,1.4-0.1,2.8-0.1,4.2l0,0.1c0,1.3,0,2.7,0,4c0,6.8-0.1,13.8-0.9,20.7
			c-0.4,2.6-1,6.1-2.3,9.3c-0.5,1.1-1,2-1.5,2.8c-0.4,0.4-0.7,0.8-1.1,1.1c-0.3,0.2-0.6,0.4-1,0.6c-0.3,0.1-0.6,0.2-1,0.3
			c-0.2,0-0.4,0-0.6,0c-0.2,0-0.5,0-0.7,0c-0.6-0.1-1.2-0.3-1.9-0.5c-0.2-0.1-3-0.7-3.2-0.7c-1,0-0.7,2.2-1,3.2
			c-0.3,1.3,1.6,1.7,2.9,2.2c1.3,0.5,2.7,0.7,3.9,0.7c0.9,0,1.8-0.1,2.6-0.4c1.9-0.6,3.6-1.9,5.2-4c1.4-1.9,2.2-4.2,2.8-6.3
			c0.8-2.6,1.2-5.3,1.6-8.5c0.8-5.9,0.9-12,0.9-17.7c0-1,0-2,0-3c0-1.4,0-2.8,0-4.3l0-0.4c0-1.4,0-2.9,0.2-4.4
			c0.7-4.6,1.5-9.2,2.3-13.7c0.6-3.2,1.2-6.5,1.7-9.8c0.7-4.4,1.3-8.5,1.7-12.5c0.4-3.3,0.8-7.1,0.5-10.8c-0.2-2.5-0.7-4.9-1.5-6.9
			c-0.9-2.2-2.2-4.2-3.9-5.9c-4.1-4.1-10-5.9-14.6-7.1c-0.2,0-0.4-0.1-0.6-0.1h0c-0.5,0-1,0.1-1.4,0.4c0.3-1.9,1.1-3.8,2.3-5.8
			c0.1-0.8,0.4-1.5,0.6-2.1l0-0.1l0,0c0.1-0.3,0.2-0.5,0.4-0.7c3.2-7.6,5.6-14,7.5-20.1c2.8-8.9,4.6-17.7,5.4-26.2
			c0.9-9.5,0.3-18.7-1.7-27.4c-2.1-9.2-6-17.8-9.8-26.2l-0.2-0.5c-0.9-2-1.8-4-2.6-6c-0.4-1.1-0.9-2.1-1.3-3.2
			c-2.6-6.4-5.4-13-9.4-18.8c-2.3-3.4-5.1-6.2-7.5-8.6c-2.3-2.3-4.9-4.6-7.7-6.8c-10-8-22.1-14.3-36.1-18.9
			c-11.8-3.9-25.3-6.5-41.3-8.1C257.4,21.5,245.1,21,230,21c-1.4,0-2.8,0-4.2,0c-7.3,0-14.8,0.2-22,0.3c-6.2,0.1-12.6,0.3-18.9,0.3
			c-1.2,0-2.4,0-3.7,0c-5.1,0-10.7-0.1-17-0.3l-1.2,0c-5.7-0.2-11.5-0.4-17.3-0.4c-1.2,0-2.3,0-3.5,0l0,0c-13,0.2-23.2,1.5-32.2,4.2
			c-5.3,1.6-10.3,3.8-14.8,6.5c-2.3,1.4-3.8,1.7-6.6,3.6c-0.2,0.2-0.1,0.1-1.1,0.7c0,0,0,0-0.1,0.1c-1.1,1.1-2.2,2.1-3.4,3.1
			c-1.5,1.5-3,3-4.3,4.7c0,0,0,0,0,0v0v0c-1.9,2.5-3.6,5.2-5.1,7.9c-1.5,4-2.5,8.5-2.9,13.7c-0.6,7.4,0,14.9,0.6,22.1
			c0.3,3.4,0.6,6.9,0.7,10.4c0.2,5.4,0.1,9.7-0.4,13.7c-0.3,2.1-0.7,4-1.2,5.9c-0.7,2.5-1.7,4.9-2.5,6.9l-0.4,0.9
			c-1.4,3.4-2.9,6.9-3.8,10.6c-1.1,4.7-1,9.7-0.9,14.5l0,1.1c0,0.7,0,1.5,0,2.2c0,4.2,0.1,8.6,1,12.8c0.8,3.6,2.3,7,3.7,10.4
			c0.2,0.4,0.4,0.9,0.6,1.3c0.5,1.1,0.8,2.1,1.2,3c0.9,1.9,1.5,3.5,2,5.1l0,0.1c0.3,0.3,0.5,0.5,0.7,0.8c0.3,0.3,0.5,0.6,0.6,0.9
			c0,0,0,0,0,0c0,0,0,0,0,0c0.1,0.5,0.1,1,0.2,1.5l0.1,0.7c-1.1,0.6-2.3,1.2-3.6,1.8c-0.8,0.3-1.5,0.7-2.3,1
			c-1.2,0.5-2.5,1.1-3.8,1.7c-2,1-3.6,2.2-4.8,3.5c-1.4,1.5-2.4,3.5-3,5.9c-0.9,3.4-0.7,7-0.4,9.7c0.4,4,1.4,7.9,2.4,11.6
			c0.3,1.2,0.7,2.3,1,3.5c0.7,2.5,1.5,5.2,2.1,7.8c0.8,3.4,1.5,7.1,2.1,11c1.1,8.3,1.4,16.8,1,25.3l-0.1,1.6
			c-0.3,5.5-0.5,11.1-0.3,16.7c0.2,3.5,0.5,6.6,1.1,9.6c0.6,3,1.6,5.7,2.9,7.9c1.3,2.3,3.2,4.2,5.4,5.2c1,0.5,2.1,0.8,3.3,1
			c0.2,0,0.4,0,0.6,0c0.9,0,1.7,0,2.6,0c0.5,0,1.1,0,1.6,0c0.2-0.1,0.3-0.2,0.5-0.3c0.6-0.5,1.3-1.1,2-1.6c0,0,0,0,0,0
			c0-0.1,0-0.1,0-0.2c0,0,0,0,0,0c0.1-0.5,0.2-0.9,0.3-1.4l0-0.9c0-1.7-0.1-3.3-0.1-5c-0.1-0.7-0.1-1.5,0-2.2c0-0.8,0-1.5-0.1-2.3
			c-0.2-7.9-0.4-16.1-0.7-25.1c-0.9-28.3-2.4-57.1-3.8-84c0,0,0,0,0,0c0.9-0.7,1.3-1.7,1.1-2.7c0,0,0,0,0,0c0.2-0.2,0.3-0.4,0.5-0.6
			c1.3-1.8,2-3.9,2.5-5.6c0.6-2.2,0.9-4.5,1-6.3c0.1-1,0.1-2.1,0.2-3.1c0.1-1.2,0.1-2.5,0.3-3.8c0.5-3.6,1.7-7.1,2.8-10.5
			c0.4-1.4,0.9-2.8,1.3-4.3c1.6-5.3,2.3-11,3.1-16.4l0.1-0.6c0.4-2.8,0.8-5.6,1.3-8.4c0.5-3.1,1.3-6.1,1.9-9
			c0.3-1.1,0.5-2.1,0.8-3.2c0.4-1.8,0.9-3.6,1.3-5.5c0.1-0.5,0.2-0.9,0.3-1.4c0.4-1.9,0.9-3.9,1.6-5.8c0.6-1.3,1.3-2.5,2.1-3.6
			c1.9-2.4,4.3-4.3,6.6-6.2l0.8-0.6c0.3-0.3,0.5-0.6,0.6-1c5.9-1.9,12.1-3.1,17.3-4.1c6.7-1.2,13.6-2.1,20.3-3l1.4-0.2
			c8.3-1.1,16.9-1.2,24.9-1.2l0.4,0c1.1,0,2.2,0,3.3,0l0.6,0c1.3,0,2.6,0,3.8,0c1.8,0,3.2,0,4.6,0c3.7-0.1,7.7-0.3,12.7-0.7
			c4-0.3,8.2-0.7,12.1-1.1c4.3-0.4,8.7-0.8,13.1-1.2c4.8-0.4,9.5-0.5,14-0.5c3.8,0,7.7,0.1,11.3,0.4c4,0.3,8.3,0.7,13.5,1.4
			c5,0.7,10,1.5,14.9,2.2c1.8,0.3,3.6,0.6,5.4,0.8c2.7,0.4,5.4,0.8,8.1,1.2c2.7,0.4,5.5,0.8,8.3,1.2c7.6,1.2,16.4,2.7,24.5,6.1
			c3.5,1.5,6.8,3.4,9.6,5.5c2.5,2,4.8,4.3,6.8,6.8c2.5,3.2,4.6,6.9,6.4,11.2c1.9,4.5,3.3,9.2,4.6,13.8l0.1,0.4
			c1.6,5.2,3,10.7,4.4,16.3c2.6,10.6,4.6,21.6,6.2,32.8c0.7,5.1,1.3,10.3,1.7,15.5c0.1,0.7,0.4,1.4,0.9,1.8
			c-0.2,7.7,0.6,15.7,1.5,23.4c0.3,3,0.7,6.1,0.9,9.1c0.4,4.4,0.6,8.2,0.6,11.8c0,4-0.2,8.3-0.5,13c-0.5,8.5-1.5,17-2.6,25.6
			c-1,8.3-1.9,17.2-3,28.8c0.1,1.7-0.2,3.4-0.4,4.7c0,0.2-0.1,0.4-0.1,0.6c0,0,0,0,0,0l0,0c-0.7,8.5-1.6,17.6-2.8,26.8
			c-1.2,8.5-2.5,16.1-4.2,23.1c-0.9,3.9-2,7.8-3.2,11.6c-1,3.3-1.9,5.8-2.9,8.1c-0.4,1-0.9,2-1.3,2.9c-0.1,0-0.2-0.1-0.3-0.1
			c0,0,0,0,0,0c0,0,0,0,0,0c-0.2,0.5-0.4,1-0.7,1.5c-0.2,0.3-0.3,0.6-0.5,1c-0.3,0.8-0.7,1.6-1.1,2.4l0,0.1l0,0
			c-0.1,0.1-0.1,0.2-0.2,0.4c0,0,0,0.1,0,0.1c-1,1.6-2.1,3.2-3.2,4.7c-3.1,4-6.8,7.7-11.1,11c-5.2,4-11.3,7.5-18.1,10.4
			c-7.1,3-14.8,5.3-23.5,7.2c-0.1-0.1-0.2-0.1-0.3-0.1c-2.5,0.5-5,0.8-7.5,0.9c-0.7,0-1.4,0.1-2.1,0.1c-2.6,0.5-5.2,0.9-7.8,1.1
			c-0.5,0.1-1.1,0.2-1.6,0.3c-1.6,0.2-3.2,0.3-4.8,0.2c-1.5,0.1-2.9,0.1-4.4,0.2c-1.9,0.2-3.9,0.5-5.9,0.6c-0.3,0-0.7,0.1-1,0.1
			c-1.5,0.1-3,0.3-4.5,0.3c-0.2,0-0.5,0-0.7,0c-0.1,0-0.2,0-0.3,0c-0.2,0.1-0.4,0.1-0.7,0.2l-2.8,0.4c-0.6,0.1-1.2,0.1-1.8,0.2
			c-1.1,0-2.2-0.2-3.2-0.5c-1.7,0.1-3.4,0.2-5,0.2c-1,0-1.9,0-2.9-0.1l-0.2,0c-3.6-0.2-7.3-0.4-10.9-0.5c-0.2,0-0.4,0-0.6,0
			c-1.3,0-2.7,0-4.3,0.1c-0.8,0-1.5,0.1-2.2,0.1c-1.1,0-2.1,0-3.1-0.1c-0.9-0.1-1.7-0.2-2.7-0.3c0,0,0,0,0,0
			c0.3,1.3,0.5,2.6,0.7,3.9c0.1,0.5,0.1,1.1,0.1,1.6c9.6,0.5,18.2,0.7,26.2,0.7c7.7,0,14.9-0.2,22-0.6c23.7-1.4,42-5.2,57.7-11.9
			c8.5-3.6,16-8.2,22.3-13.8c1.9-1.6,3.7-3.4,5.3-5.3c0.2-0.3,0.4-0.6,0.6-0.9c0.7-1,1.5-1.9,2.3-2.9l0.1-0.2l0.2-0.2l0-0.1l0,0
			c0.4-0.5,0.8-0.9,1.2-1.4c0.2-0.2,0.4-0.5,0.6-0.7l0.2-0.3l0.2-0.3c0.2-0.5,0.4-0.9,0.7-1.3c0.1-0.2,0.2-0.4,0.2-0.6l0-0.1l0,0
			l0-0.1l0.1-0.2l0,0l0-0.1l0,0l0-0.1c0.2-0.4,0.5-0.8,0.8-1.1c0,0,0-0.1,0-0.1c0.9-1.6,1.8-3.3,2.6-4.9c2.9-6.3,4.8-12.9,6.4-19.1
			c1.9-7.3,3.5-15.3,4.8-24.5c1.4-10.1,2.4-20.3,3.2-29.9 M83,46.2L83,46.2C83,46.2,83,46.2,83,46.2L83,46.2L83,46.2z M78,310.8
			c-0.6-0.1-1.2-0.3-1.8-0.5c-0.5-0.2-1-0.5-1.5-0.9c-0.5-0.4-1-0.9-1.5-1.5c-0.6-0.9-1.2-1.8-1.6-2.9c-0.9-2.2-1.5-4.7-1.9-7.7
			c-0.7-5.4-0.6-10.7-0.5-15.3c0.1-1.8,0.1-3.6,0.2-5.4c0.1-2.5,0.3-5.1,0.3-7.6c0.1-9.5-0.6-18-2-26.1c-0.7-4.2-1.7-8.5-3.3-13.8
			l-0.3-1c-1.2-4.3-2.5-8.8-3.2-13.4c-0.3-2.9-0.4-5.3-0.1-7.6c0.2-1.1,0.5-2.2,0.8-3.1c0.3-0.6,0.6-1.2,1-1.7
			c0.4-0.5,0.9-1,1.5-1.5c1.9-1.4,4.1-2.3,6.2-3.2l0.4-0.2c1.5-0.6,2.8-1.2,3.9-1.8c0.1,1,0.2,1.9,0.2,2.9c0,0.6,0.2,1.1,0.5,1.5
			c0,0,0,0,0,0c1.3,24.3,2.7,53.1,3.6,82c0.2,7.6,0.4,15.3,0.6,22.9c0.1,0.4,0.2,0.8,0.2,1.2c0.2,1.7,0.2,3.2,0.1,4.6c0,0,0,0,0,0
			s0,0,0,0c-0.2,0-0.5,0-0.7,0C78.8,310.9,78.4,310.8,78,310.8L78,310.8z"/>
		<path fill="#010101" d="M340.9,170.3c-9.9,0.8-20,1-29.8,1.2c-1.8,0-3.6,0.1-5.3,0.1c-11.4,0.2-23.6,0.7-35.8,2.5
			c-0.5,0.1-1,0.4-1.3,0.9c-0.4,0.6-0.5,1.4-0.4,2.1c0.3,1.1,1.2,1.7,2.5,1.7c0.2,0,0.4,0,0.5,0c0.8-0.1,1.5-0.2,2.3-0.3
			c12.6-1.6,25.5-1.9,38-2.1c9.6-0.2,19.6-0.4,29.4-1.2c1.4-0.1,2.4-1.1,2.4-2.4c0-1.2-1-2.4-2.3-2.4
			C341,170.3,341,170.3,340.9,170.3L340.9,170.3z"/>
		<path fill="#010101" d="M110.3,173.6c-2.9,0.1-5.8,0.3-8.7,0.4c-1.4,0.1-2.4,1.1-2.4,2.4c0,1.3,1.1,2.4,2.3,2.4l0.1,0
			c2.9-0.1,5.9-0.3,8.8-0.4c16.8-0.7,34.1-1.5,51.2-1.5c9.2,0,17.7,0.2,25.7,0.7c0,0,0.1,0,0.1,0c1.2,0,2.3-1.1,2.3-2.4
			c0-1.3-1-2.4-2.4-2.4c-8.1-0.5-16.5-0.7-25.7-0.7C144.5,172.1,127.1,172.9,110.3,173.6L110.3,173.6z"/>
		<path fill="#010101" d="M81.9,307.3c-1.1,5.2-1.3,10.5-1.1,15.8c0.2,5.7,1,11.4,1.8,17c0.8,5.3,1.6,10.5,2.5,15.8
			c1,5.8,2.2,11.5,3.7,17.1c1.5,5.6,3.6,11.1,6.2,16.3c2.5,4.9,5.7,9.4,9.2,13.7c6.2,7.6,14,13.9,22.6,18.6
			c13.3,7.3,28.2,10.7,43.1,12.5c7.7,0.9,15.5,1.4,23.2,1.7c4.1,0.1,8.1,0.2,12.2,0.3c5.2,0.1,10.4,0.1,15.6-0.7
			c1.6-0.2,2.4-2.2,2-3.6c-0.1-0.2-0.2-0.5-0.3-0.7c-3.6,0-7.2-0.3-10.7-0.8c-2.9,0.1-5.7,0-8.6-0.1c-4-0.1-8-0.2-12-0.4
			c-8-0.3-16-0.9-23.9-1.9c-10.4-1.4-20.7-3.8-30.4-7.8c-6.1-2.6-11.8-5.9-17.1-9.9c-4.9-3.8-9.2-8.2-13.1-13.1
			c-1.6-2.1-3.1-4.3-4.5-6.6c-1.6-2.7-3-5.5-4.3-8.3c-3.2-7.7-5.1-15.7-6.7-23.9c-0.8-4-1.4-7.9-2-11.9c-0.6-3.6-1.1-7.2-1.6-10.8
			c-0.7-5.7-1.4-11.5-1.3-17.2c0-0.1,0-0.2-0.1-0.3c-0.1-1-0.2-2.1-0.3-3.1c-0.1-0.5-0.1-1-0.2-1.4c-0.2-0.2-0.3-0.4-0.3-0.7
			c0-0.1,0-0.3,0-0.4c-0.3-1.9-0.8-3.7-1.1-5.6c-0.1-0.6-0.2-1.2-0.2-1.8C83.3,305.4,82.2,306.2,81.9,307.3L81.9,307.3z"/>
		<path fill="#010101" d="M192.1,223c-1.1,6.3-1.2,12.6-1.2,18.5l0,1.9c0.1,5.7,0.2,11.5-0.5,17.3c-0.6,4.3-1.8,8.3-3.4,12.4
			c-1.6,3.6-3.4,7-4.9,9.6c-1.8,3.2-3.7,6.5-5.7,9.9c-2.5,4.3-5.2,8.7-8,13l0,0c0,0,0,0,0,0c0,0,0,0,0,0c0,0,0,0,0,0
			c0,0.1-0.1,0.1-0.1,0.2c-0.2,0.3-0.4,0.6-0.6,0.9c-0.6,1.1-1.3,2.2-1.9,3.4c0,0,0,0,0,0l-0.1,0.2c-0.4,0.7-0.8,1.6-1.3,2.4
			c-0.1,0.2-0.2,0.5-0.3,0.7c-0.1,0.4-0.4,0.9-0.6,1.2c0,0,0,0,0,0.1c-0.5,0.8-1.1,1.7-1.6,2.5l-0.2,0.4l-0.2,0.4
			c-0.3,0.4-0.5,0.9-0.8,1.3c-2.6,4.2-5.3,8.8-6.6,13.8c-1,4-0.6,8,1.1,11.2c1.2,2.2,3.1,4.2,6,6.1c3,2,6.4,3.3,9.1,4.2
			c3.1,1,6.5,1.9,11.1,2.7c7.9,1.5,15.9,2.2,23.4,2.8c1.4,0.1,2.8,0.2,4.3,0.3c1.8,0.1,3.5,0.2,5.3,0.4c0.9,0.1,1.9,0.2,2.8,0.2
			c0.6,0.1,1.2,0.1,1.8,0.2c2.3,0.2,4.7,0.3,7.3,0.3c0.8,0,1.7,0,2.6,0c13.1-0.3,25.6-3.9,35.1-7.1c5.6-1.8,11-3.7,16.2-6
			c4.2-1.8,7.3-3.8,9.8-6.1c2.3-2.1,3.7-4.8,4.2-7.5c0.5-2.8,0-5.8-1.3-9.2c-1.7-4.1-4.2-7.9-6.4-11c-2.1-2.9-4.3-5.7-6.5-8.4
			c-1.2-1.5-2.5-3-3.7-4.6c-2.6-3.4-4.6-6.6-6.1-9.9c-0.3-0.7-1.2-1.2-2.1-1.2c-0.5,0-0.9,0.1-1.3,0.3c-1.1,0.7-1.5,2.1-0.9,3.4
			c1.5,3.3,3.6,6.6,6.3,10.1c1.3,1.8,2.8,3.5,4,5l0.1,0.2c1.1,1.4,2.3,2.8,3.4,4.2c3.1,4,6.2,8.3,8.4,13.2c0.6,1.5,1,2.9,1.3,4.3
			c0.1,0.8,0.1,1.6,0,2.4c-0.1,0.6-0.3,1.3-0.5,1.9c-0.3,0.7-0.7,1.3-1.1,1.9c-0.7,0.8-1.5,1.6-2.5,2.4c-2.8,2.1-5.9,3.6-8.4,4.6
			c-2.8,1.1-5.6,2.1-8.4,3.1l-0.1,0l-0.1,0c-3.9,1.3-7.3,2.5-10.6,3.5c-7.1,2.2-13.6,3.7-19.7,4.6c-3.9,0.5-7.9,0.8-11.8,0.8
			c-1.8,0-3.7-0.1-5.6-0.2c-1.8-0.1-3.6-0.3-5.3-0.4c-1.2-0.1-2.8-0.2-4.3-0.4c-7.1-0.5-14.4-1-21.6-2c-6.5-0.9-14-2.2-20.9-5
			c-2.3-1-4.2-2-5.8-3.2c-0.9-0.7-1.7-1.5-2.3-2.3c-0.5-0.6-0.8-1.3-1.2-2c-0.2-0.6-0.4-1.3-0.6-2.1c-0.1-1-0.1-2,0-3.1
			c0.3-1.6,0.8-3.3,1.5-5.1c1.6-3.7,3.8-7.2,5.9-10.6l0,0c0.8-1.3,1.7-2.7,2.4-4c0.7-1.2,1.4-2.4,2-3.8c0,0,0-0.1,0-0.1
			c-0.1-0.1-0.1-0.1-0.2-0.2c3.8-5.7,7.5-11.7,11-17.7l0.9-1.5c3.5-6,7.2-12.3,9.9-18.8c2.7-6.3,4-13.7,4.1-23.2c0-2.5,0-5.1,0-7.4
			c-0.1-5.4-0.2-11,0.5-16.5c0.1-0.9,0.3-1.8,0.4-2.7c0.3-1.4-0.5-2.7-1.7-3c-0.2-0.1-0.4-0.1-0.6-0.1
			C193.5,221.2,192.3,221.9,192.1,223L192.1,223z"/>
		<path fill="#010101" d="M166.5,311c0,0.9,0.8,1.7,1.7,1.7s1.7-0.8,1.7-1.7s-0.8-1.7-1.7-1.7S166.5,310.1,166.5,311L166.5,311z"/>
		<path fill="#010101" d="M169.5,307.4c-0.6,0.4-1.1,1-1.5,1.7c-0.1,0.1-0.1,0.1-0.2,0.2c-0.6,0.7-1.2,1.3-1.7,2.1
			c-0.3,0.5-0.3,1.2,0,1.7c-0.2,0.7,0.2,1.5,0.8,1.9c0.9,0.5,1.7,0.1,2.3-0.6c0.2-0.3,0.4-0.6,0.6-0.9c0.3-0.5,0.5-1.1,0.8-1.6
			c0,0,0,0,0,0c0,0,0-0.1,0-0.1c0.4-0.6,0.7-1.2,1.1-1.8c0.1-0.3,0.2-0.6,0.1-1c0-0.9-0.8-1.7-1.7-1.7
			C170,307.2,169.8,307.3,169.5,307.4L169.5,307.4z"/>
		<path fill="#010101" d="M169.5,306.4c-0.7,1.5-1.6,3-2.5,4.5c-0.5,0.8-0.2,1.8,0.6,2.3c0.8,0.5,1.8,0.2,2.3-0.6
			c0.9-1.5,1.8-2.9,2.5-4.5c0.4-0.8,0.2-1.8-0.6-2.3c-0.2-0.1-0.5-0.2-0.8-0.2C170.3,305.6,169.7,305.8,169.5,306.4L169.5,306.4z"/>
		<path fill="#010101" d="M170.2,305.1c-0.1,0.4-0.2,0.7-0.3,1.1c-0.6,1.3-1.4,2.4-2.1,3.6c-0.5,0.8-0.2,1.8,0.6,2.3
			c0.8,0.5,1.8,0.2,2.3-0.6c1.1-1.7,2.3-3.4,2.8-5.4c0.2-0.9-0.3-1.8-1.2-2c-0.1,0-0.3-0.1-0.4-0.1
			C171.1,303.9,170.4,304.3,170.2,305.1L170.2,305.1z"/>
		<path fill="#010101" d="M169.2,307.7C169.2,307.7,169.2,307.7,169.2,307.7c-0.1,0.2-0.2,0.4-0.3,0.5c-0.3,0.3-0.6,0.6-0.8,1
			c-0.5,0.8-0.2,1.8,0.6,2.3c0.8,0.5,1.8,0.2,2.3-0.6c0.2-0.1,0.3-0.1,0.5-0.2c0.2-0.3,0.3-0.6,0.5-0.8c0.1-0.2,0.2-0.4,0.3-0.6
			c0-0.1,0-0.2,0-0.3c0.1-0.2,0.1-0.4,0.1-0.7c0.1-0.9-0.8-1.7-1.7-1.7C169.9,306.6,169.4,307.1,169.2,307.7L169.2,307.7z
			 M169.1,308C169.1,308,169.1,308,169.1,308C169.1,308,169.1,308,169.1,308C169.1,308,169.1,308,169.1,308L169.1,308z"/>
		<path fill="#010101" d="M243.1,431.5c1.9,0,3.8,0.2,5.8,0.1c0.1,0,0.1-0.2,0-0.2c-1.9,0.1-3.8-0.1-5.8-0.1c0,0,0,0,0,0
			C243,431.3,243,431.5,243.1,431.5L243.1,431.5z"/>
		<path fill="#010101" d="M234.8,432.2c-0.1,0-0.1,0.2,0.1,0.2c1-0.2,2-0.4,3-0.6c0,0,0,0,0,0c3.3-0.4,6.7-0.5,10-0.3
			c0.1,0,0.1-0.2,0-0.2c-1.3-0.1-2.5-0.1-3.8-0.1C241,431.2,237.9,431.5,234.8,432.2L234.8,432.2z M237.8,431.8
			C237.8,431.8,237.9,431.8,237.8,431.8C237.9,431.8,237.8,431.8,237.8,431.8L237.8,431.8z"/>
		<path fill="#010101" d="M239.5,431.5c-0.1,0-0.1,0.2,0,0.2c1.9-0.1,3.9-0.3,5.8-0.1c0.1,0,0.1-0.2,0-0.2c-0.6-0.1-1.2-0.1-1.8-0.1
			C242.2,431.3,240.9,431.5,239.5,431.5L239.5,431.5z"/>
		<path fill="#010101" d="M238.9,431.9C238.9,431.9,238.9,431.9,238.9,431.9c-0.2,0-0.3,0-0.5,0.1c-0.1,0-0.1,0.2,0,0.2
			c1.2-0.2,2.3-0.4,3.5-0.5c0,0,0,0,0,0c1.2-0.1,2.3-0.2,3.5-0.1c0.1,0,0.1-0.2,0-0.2c-0.3,0-0.6,0-1,0
			C242.6,431.2,240.8,431.6,238.9,431.9L238.9,431.9z"/>
		<path fill="#010101" d="M238.4,432.3c-0.1,0-0.1,0.2,0.1,0.2c0.8-0.2,1.6-0.3,2.4-0.4c0,0,0,0,0,0c1.4-0.2,2.9-0.2,4.3-0.1
			c0.1,0,0.1-0.2,0-0.2c-0.5,0-0.9,0-1.4,0C241.9,431.7,240.2,431.9,238.4,432.3L238.4,432.3z"/>
		<path fill="#010101" d="M240.8,431.8c-0.1,0-0.1,0.2,0,0.2c1.7-0.2,3.3-0.3,5-0.3c0.1,0,0.1-0.2,0-0.2
			C244.1,431.5,242.4,431.6,240.8,431.8L240.8,431.8z"/>
		<path fill="#010101" d="M245.5,431.3c-1.7,0.1-3.5,0.1-5.2,0.2c-0.1,0-0.1,0.2,0,0.2c1.7-0.1,3.5-0.1,5.2-0.2
			C245.6,431.6,245.6,431.3,245.5,431.3C245.5,431.3,245.5,431.3,245.5,431.3L245.5,431.3z"/>
		<path fill="#010101" d="M237.6,431.9c-0.1,0-0.1,0.2,0.1,0.2c0.6-0.1,1.3-0.3,1.9-0.3c0,0,0,0,0,0c2.2-0.2,4.4-0.1,6.5-0.1
			c0.1,0,0.1-0.2,0-0.2c-0.9,0-1.8,0-2.7,0C241.4,431.4,239.5,431.5,237.6,431.9L237.6,431.9z"/>
		<path fill="#010101" d="M238.8,431.7c-0.1,0-0.1,0.2,0.1,0.2c0.2,0,0.3-0.1,0.5-0.1c0,0,0,0,0,0c0.1,0,0.3,0,0.4,0c0,0,0,0,0.1,0
			c0.3,0,0.6,0,0.9,0c0,0,0,0.1,0.1,0.1c0.4,0,0.8,0,1.2,0c0.1,0,0.1-0.1,0.1-0.1c0,0,0.1,0,0.1,0c0.1,0,0.1-0.2,0-0.2c0,0,0,0,0,0
			C241,431.4,239.9,431.5,238.8,431.7L238.8,431.7z"/>
		<path fill="#010101" d="M241.4,431.6c-0.8,0.1-1.6,0.2-2.4,0.2c-0.1,0-0.1,0.2,0,0.2c0.8,0,1.6-0.1,2.4-0.2
			C241.6,431.8,241.6,431.6,241.4,431.6C241.4,431.6,241.4,431.6,241.4,431.6L241.4,431.6z"/>
		<path fill="#010101" d="M242.2,431.7c0,0-0.1,0-0.1,0c0,0,0,0,0,0c0,0,0,0,0,0c0,0,0,0,0,0c0,0,0,0,0,0c-0.5,0.1-1.1,0.1-1.6,0.1
			c-0.1,0-0.1,0.2,0,0.2c0.6,0,1.2,0,1.8-0.1C242.4,431.9,242.3,431.7,242.2,431.7C242.2,431.7,242.2,431.7,242.2,431.7L242.2,431.7
			z M242,431.7C242,431.7,242,431.7,242,431.7C242,431.7,242.1,431.7,242,431.7C242.1,431.7,242,431.7,242,431.7L242,431.7z"/>
		<path fill="#010101" d="M243.6,431.5c-0.7,0.1-1.3,0.1-2,0.1c-0.1,0-0.1,0.2,0,0.2c0.7,0,1.3-0.1,2-0.1
			C243.8,431.6,243.8,431.4,243.6,431.5C243.6,431.4,243.6,431.4,243.6,431.5L243.6,431.5z"/>
		<path fill="#010101" d="M243,431.4c-0.7,0.1-1.4,0.1-2.1,0.2c-0.1,0-0.1,0.2,0,0.2c0.7-0.1,1.4-0.1,2.1-0.2
			C243.1,431.6,243.1,431.4,243,431.4C243,431.4,243,431.4,243,431.4L243,431.4z"/>
		<path fill="#010101" d="M242.9,431.6c-0.1,0-0.2,0-0.3,0.1c0,0,0,0,0,0c-0.6,0.1-1.2,0.1-1.8,0.2c-0.1,0-0.1,0.2,0,0.2
			c0.7-0.1,1.5-0.1,2.2-0.2C243.1,431.7,243,431.6,242.9,431.6C242.9,431.6,242.9,431.6,242.9,431.6L242.9,431.6z"/>
		<path fill="#010101" d="M242.9,431.6c-0.2,0-0.5,0.1-0.7,0.1c0,0,0,0,0,0c-0.3,0-0.7,0.1-1,0.1c-0.1,0-0.1,0.2,0,0.2
			c0.6-0.1,1.2-0.1,1.8-0.2C243.1,431.8,243.1,431.6,242.9,431.6C243,431.6,243,431.6,242.9,431.6L242.9,431.6z M242.2,431.7
			C242.2,431.7,242.2,431.7,242.2,431.7C242.2,431.7,242.2,431.7,242.2,431.7L242.2,431.7z"/>
		<path fill="#010101" d="M245,431.7c-0.6,0-1.1,0-1.7,0.1c0,0,0,0-0.1,0c-0.5,0-1.1,0-1.6,0.1c-0.1,0-0.1,0-0.1,0.1
			c-0.9,0.1-1.8,0.2-2.8,0.2c-0.1,0-0.1,0.2,0,0.2c0.7-0.1,1.3-0.1,2-0.2c0,0,0,0,0,0c0.8,0,1.6-0.1,2.4-0.1c0,0,0,0,0.1,0
			c0.3,0,0.6,0,0.9-0.1c0.6,0,1.2,0,1.8-0.1c0.1,0,0.1-0.2,0-0.2C245.7,431.7,245.4,431.7,245,431.7
			C245.1,431.7,245.1,431.7,245,431.7C245.1,431.7,245.1,431.7,245,431.7L245,431.7z"/>
		<path fill="#010101" d="M139.4,203.9c0,6.8,5.7,12.5,12.5,12.5s12.5-5.7,12.5-12.5s-5.7-12.5-12.5-12.5S139.4,197.1,139.4,203.9
			L139.4,203.9z"/>
		<path fill="#010101" d="M285.8,204.5c0,6.8,5.7,12.5,12.5,12.5c6.8,0,12.5-5.7,12.5-12.5c0-6.8-5.7-12.5-12.5-12.5
			C291.5,191.9,285.8,197.7,285.8,204.5L285.8,204.5z"/>
	</g>
</g>
</svg>
