<?xml version="1.0" encoding="utf-8"?>
<!-- Generator: Adobe Illustrator 18.1.1, SVG Export Plug-In . SVG Version: 6.00 Build 0)  -->
<svg version="1.1" id="Layer_1" xmlns="http://www.w3.org/2000/svg" xmlns:xlink="http://www.w3.org/1999/xlink" x="0px" y="0px"
	 viewBox="0 0 447.4 554.5" enable-background="new 0 0 447.4 554.5" xml:space="preserve">
<g>
	<path d="M223.5,554c-5-0.2-10.1-0.5-15.1-0.6c-13.7-0.3-27.3-0.4-41-1.4c-12.2-0.9-24.3-2.3-36.3-4.9c-13.3-2.9-26-7.2-37.8-14
		c-18.6-10.6-32.6-25.5-42-44.8c-5.3-10.7-8.2-22.2-10.4-33.8c-1.9-10.4-3.6-20.9-5.2-31.4c-1.5-9.6-2.4-19.2-2.1-28.9
		c0-0.5-0.1-1.1-0.2-1.8c-0.9,0-1.7,0-2.5,0c-6.1,0.2-10.6-2.6-13.7-7.7c-1.4-2.4-2.5-5-3.4-7.6c-1.8-5.7-2.4-11.6-2.4-17.5
		c0-8.3,0.1-18.3,0.4-26.6c-0.2-15.7-1.4-33.9-3.1-39.3c-0.8-6.3-7.2-27.5-8.1-35c-0.1-0.9-0.1-1.3-0.3-4.6c0-2.7,0.1-2.9,0.1-5.4
		c0.1-0.7,0.1-1.5,0.3-2.3c1.2-6.9,5.2-11.5,11.5-14.3c2.8-1.3,5.7-2.5,8.5-3.8c1.2-0.6,2.4-1.2,3.5-1.8c-0.1-1.9-0.3-3.4-1.6-4.6
		c-0.3-0.3-0.5-0.7-0.6-1c-2.5-6.1-5-12.3-7.5-18.4c-1.8-4.6-3.1-9.3-3.3-14.2c-0.2-8.8-0.3-17.6-0.3-26.4c0-1.8,0.4-3.7,0.7-5.5
		c1-5.8,3.2-11.2,5.6-16.5c4.7-10.2,6.4-20.9,5.9-32c-0.5-10.6-1.3-21.2-2-31.8c-0.5-7.9-0.2-15.8,1.2-23.7c0.7-3.8,1.4-7.6,3.3-11
		c1.9-3.3,3.9-6.5,6.2-9.4c4-5.2,8.7-9.8,14.4-13.2c3.6-2.1,7.3-4.1,11-5.8c3.7-1.8,7.5-3.5,11.5-4.9c11.2-3.9,22.8-5.6,34.6-6.3
		c1.3-0.1,8.4-0.4,9.9-0.5c8.8,0,1.3,0,9.2,0c0.5,0.1,12.3,0.3,12.8,0.4c7.9,0.2,15.8,0.5,23.7,0.5c16.1,0,32.1-0.3,48.2-0.5
		c3.7,0,7.3-0.3,11-0.4c8.3,0,11.7,0,20,0c1.8,0,7.6,0.3,9,0.3c16.9,0.2,33.7,1,50.4,3.4c13.5,1.9,26.8,4.6,39.7,8.9
		c17.8,5.9,34.4,14.1,49.1,25.9c12.4,9.9,22.3,21.7,28.4,36.5c4.8,11.7,9.9,23.2,14.9,34.8c9.2,21.3,11.8,43.3,8.2,66.2
		c-2.1,13.1-5.5,25.8-10.2,38.1c-2.8,7.4-5.9,14.6-8.9,22c-0.5,1.2-0.9,2.5-1.3,3.9c1,0,1.7,0,2.4,0.1c5.5,1.4,10.9,3.1,15.7,6.3
		c6.3,4.3,10.4,9.6,11,17.3c0.1,0.4,0.2,2,0.4,3.8c0.1,1.4,0,3.8,0,4.4c0,1.9-0.5,5.3-0.6,6.1c-0.2,2.5-0.6,4.8-0.9,7.3
		c-1.7,11-3.5,21.9-5.4,32.9c-1.3,7.4-2.4,14.8-2.1,22.4c0.1,3.1,0,6.2,0,9.4c0,8.3-0.6,16.5-2,24.6c-0.7,4.2-1.8,8.3-3.9,12
		c-3.2,5.5-8.7,9.7-17.3,6.4c-0.8-0.3-1.7-0.6-2.7-0.9c-0.5,5.3-1,10.3-1.5,15.3c-1.3,13.4-2.9,26.9-5.4,40.1
		c-2.1,10.8-4.8,21.5-8.1,32c-2.3,7.3-6,13.9-9.4,20.6c-1,1.9-2.4,3.6-3.7,5.2c-2.3,2.9-4.4,5.9-7,8.5c-8.3,8.4-17.9,14.9-28.6,19.9
		c-18.2,8.6-37.4,13.2-57.3,15.9c-13.5,1.8-27.1,2.5-40.6,3 M273.4,544.8c5.8-0.1,11.5-0.5,17.2-1.4c2.3-0.4,4.6-0.9,6.9-1
		c7.3-0.3,17.4-3.3,24.4-5.2c13.4-3.6,24.6-7.8,36.5-15.2c7.1-4.4,11.8-8.6,17.5-14.7c6.5-6,9.6-13.7,12.6-19.4
		c1.3-2.5,2.3-5.3,3.2-8c5.7-16.5,9.3-33.6,11.4-50.9c2.1-17.7,3.6-35.5,5.4-53.2c0.8-8.1,1.6-16.2,2.6-24.3
		c1.4-12.1,2.9-24.3,3.8-36.5c1.2-15.4,0.6-30.7-1.3-46c-1.2-9.9-2.1-19.7-2-29.7c0-0.5,0.1-1.1-0.2-1.4c-1.4-2.1-1.2-4.6-1.4-7
		c-1.3-13.9-3.5-27.6-6.1-41.3c-2.7-14.3-6.4-28.4-10.5-42.3c-2.2-7.4-4.5-14.8-8-21.8c-4.8-9.4-11.5-17.1-20.7-22.4
		c-5.1-3-10.6-5.2-16.3-6.8c-10.7-3.2-21.7-4.6-32.7-6.2c-11.4-1.7-22.8-3.4-34.2-5.1c-10.1-1.5-20.3-2.6-30.5-3
		c-14.5-0.6-28.9,0.7-43.3,2.1c-9.2,0.9-18.5,1.7-27.7,2.1c-9.9,0.4-19.8,0.2-29.7,0.4c-7,0.2-13.9,0.4-20.8,1
		c-6.5,0.6-13,1.6-19.5,2.5c-10.9,1.5-21.8,3.4-32.5,6.3c-2.4,0.6-4.6,1.3-6.4,3.3c-1.8,1.9-4,3.4-5.9,5.2c-3.5,3.1-5.9,6.9-7,11.5
		c-0.9,3.7-1.7,7.3-2.6,11c-2.2,9.2-4.4,18.3-5.6,27.7c-1.5,11.7-3.5,23.4-7.6,34.6c-1.9,5.4-2.8,11-2.9,16.7c0,2.2-0.4,4.3-0.6,6.5
		c-0.5,5.6-3.7,10.1-5.5,15.2c0,0.1-0.1,0.1-0.1,0.2c-0.2,0.7-0.6,1.5-0.6,2.2c0.4,8.6,0.8,17.3,1.2,25.9
		c0.8,16.4,1.6,32.8,2.4,49.1c0,0-0.1,0-0.1,0c0.3,6.2,0.6,12.3,0.8,18.5c0.6,18.5,1,37.1,1.6,55.6c0,1.3,0.2,2.7,0.5,4
		c1.3,6.2,2.4,12.4,2.4,18.7c0,3.4,0.4,6.9,0.8,10.3c1.1,8.6,2.3,17.3,3.6,25.9c1.6,10.5,3.7,20.9,6.7,31.2
		c6,20.8,17.8,37.6,35.1,50.4c12.3,9.2,26.3,14.7,41.1,18.4c15.8,3.9,32,5.4,48.2,6.2c15,0.7,30,1,45.1,1.5 M413.3,387.1
		c1.6,0.4,3.1,0.8,4.6,1.2c4.4,1.2,6.7,0.2,8.9-3.8c2.7-5,3.6-10.4,4.2-15.9c1-9,1.2-18,1-27.1c-0.2-7.8,0.8-15.5,2.2-23.1
		c2.4-13,5.1-26.1,6.2-39.3c0.4-4.1,0.8-8.1,0.3-12.2c-0.5-4.4-2.2-8.2-5.4-11.2c-4.8-4.4-10.8-6.2-17.2-7.7c0,1.1-0.1,2,0,2.8
		c0.8,9.3,1.6,18.6,2.6,27.9c1.3,12,1.5,23.9,0.5,35.9c-0.8,9.7-1.8,19.4-2.8,29.1c-1.1,10.2-2.3,20.3-3.5,30.5
		C414.4,378.4,413.9,382.6,413.3,387.1z M25.2,233.9c-1.5,0.6-2.9,1.2-4.2,1.8c-2.7,1.3-5.4,2.4-8,3.9c-2.9,1.6-4.6,4-5.4,7.3
		c-1.1,4.5-1,8.9,0,13.3c1.3,6.3,3.4,14.2,5.2,20.4c4,16.2,4.4,24.4,5.1,32.9c0.5,7.3,0.4,27.1,0.4,30.4c-0.4,8.2-0.4,14.9,0.5,23.2
		c0.4,4.1,1.2,8.2,2.8,12.1c1,2.3,2.3,4.4,4.4,5.9c1.9,1.3,3.9,2.2,6.4,1.2c0-1.1,0.1-2.1,0-3.1c-0.1-2.1-0.4-4.1-0.5-6.2
		c-0.4-13.3-0.7-26.7-1.1-40c-0.3-10-0.7-20-1.1-30c-0.7-16.3-1.4-32.6-2.3-48.9C26.9,250,26.9,242,25.2,233.9z"/>
	<path d="M221.9,447.2c15.7,0.4,28.5-1.6,41-5.4c10.4-3.1,20.6-6.8,30.9-10.3c4-1.4,7.8-3.4,11.2-5.9c2.7-2,5.2-4.4,5.7-8
		c0.2-1.4,0.3-2.9,0-4.2c-0.7-2.7-1.6-5.4-2.9-7.8c-2.9-5.9-6.9-11.1-11-16.3c-3.5-4.4-7.1-8.7-10.4-13.2c-2.4-3.3-4.3-6.9-6.4-10.4
		c-0.4-0.7-0.6-1.5-0.7-2.2c-0.2-1.6,0.6-2.9,2-3.4c1.6-0.6,3.4,0,4.1,1.5c3.6,7.7,9,14.1,14.2,20.7c3.9,5,7.6,10.1,11.2,15.3
		c2.4,3.6,4.4,7.4,5.6,11.6c2.6,8.7,0.5,15.4-6.6,21.1c-3.3,2.6-6.9,4.7-10.7,6.3c-16.6,6.9-33.6,12.7-51.4,15.9
		c-10.2,1.8-20.5,2.1-30.8,1.3c-8.7-0.7-17.4-1.3-26.1-2c-12.5-1.1-25-2.6-37-6.3c-5.5-1.7-10.8-3.9-15.5-7.5
		c-3.9-3-6.7-6.7-7.6-11.5c-0.7-3.7-0.7-7.4,0.6-10.9c1.2-3.5,2.7-7,4.4-10.4c1.9-3.8,4.3-7.3,6.4-11c1-1.8,1.9-3.7,3-5.5
		c2.3-3.9,4.5-7.9,6.9-11.8c7.2-11.7,14.4-23.5,20.6-35.7c4.8-9.3,7.2-19.3,7.3-29.8c0.1-8.5-0.1-17,0.2-25.4c0.1-5,0.8-10,1.3-15
		c0.1-0.8,0.4-1.6,0.8-2.2c0.8-1.1,2.8-1.6,3.9-1.2c1.4,0.5,2.2,1.8,2,3.5c-0.2,2.8-0.9,5.5-0.9,8.3c-0.2,9.3-0.2,18.5-0.4,27.8
		c-0.1,3.4-0.3,6.9-0.5,10.3c-0.7,8.5-3,16.6-6.7,24.4c-4.4,9.3-9.7,18-14.9,26.8c-2.5,4.3-5.2,8.4-7.8,12.7
		c-1.6,2.7-3.1,5.6-4.7,8.3c-2.1,3.7-4.3,7.3-6.4,11c-2.2,3.8-4.4,7.6-6.3,11.5c-1.1,2.3-1.8,5-2.4,7.5c-0.9,4.3,0.5,8.1,3.6,11.2
		c2.8,2.8,6.4,4.5,10,6c7,2.8,14.3,4.4,21.8,5.6c11.1,1.8,22.2,2.6,33.4,3.4C212.1,446.4,218.2,446.9,221.9,447.2z"/>
	<path d="M233.8,499.6c-12.1-0.3-24-1.2-35.7-3.2c-9.8-1.7-19.5-3.6-29.2-5.4c-0.6-0.1-1.3-0.3-1.9-0.4c-2.2-0.6-3.4-2.4-3-4.7
		c0.3-2.2,2.1-3.8,4.4-3.5c2.8,0.4,5.7,1,8.5,1.6c10.9,2.2,21.8,4.2,32.8,5.5c12.3,1.4,24.7,2.3,37.1,1.1c11.2-1.1,22.1-3.3,32-9.2
		c2.2-1.3,4.6-0.7,5.9,1.3c1.3,2,0.7,4.6-1.6,6c-4.7,3.1-9.9,5.2-15.3,6.8C256.6,498.7,245.2,499.6,233.8,499.6z"/>
	<path d="M127.9,261.3c-9.1-0.2-16.6-7.9-16.4-16.9c0.2-9.1,7.9-16.5,16.9-16.4c9,0.1,16.6,8,16.4,16.9
		C144.6,254.1,137,261.4,127.9,261.3z"/>
	<path d="M306.1,245.4c0.1-9.2,7.6-16.6,16.7-16.5c9.2,0.1,16.6,7.6,16.5,16.7c0,9.1-7.6,16.6-16.7,16.5
		C313.5,262.1,306.1,254.5,306.1,245.4z"/>
	<path d="M118.2,209c-18.4,0.7-36.7,1.5-55.1,2.2c-0.6,0-1.3,0.1-1.9,0c-1.7-0.1-2.9-1.3-3-2.9c-0.1-1.5,0.9-3,2.5-3.4
		c0.5-0.1,1-0.1,1.4-0.1c28.3-1.3,56.6-2.7,84.9-2.4c8.6,0.1,17.1,0.4,25.7,0.7c1.1,0,2.2,0.1,3.3,0.3c1.6,0.3,2.7,1.7,2.5,3.3
		c-0.1,1.5-1.4,2.8-3,3c-0.6,0.1-1.1,0-1.7,0C155.3,208.6,136.7,208.6,118.2,209z"/>
	<path d="M286.6,211.3c-3.7,0.2-4.4-2.7-3.5-4.6c0.5-1.1,1.4-1.6,2.6-1.8c5.7-0.6,11.4-1.4,17.2-1.9c15.3-1.3,30.7-1.3,46-1.7
		c9.6-0.3,19.2-0.8,28.8-1.2c0.8,0,1.6-0.1,2.4,0.1c1.5,0.3,2.5,1.5,2.5,3c0.1,1.6-0.8,2.8-2.4,3.1c-1.3,0.3-2.7,0.4-4,0.4
		c-10,0.4-20,0.8-30,1.2c-10.1,0.3-20.2,0.3-30.2,0.9c-8.9,0.5-17.8,1.4-26.8,2.2C288.4,211.1,287.5,211.2,286.6,211.3z"/>
</g>
</svg>
