<?xml version="1.0" encoding="utf-8"?>
<!-- Generator: Adobe Illustrator 18.1.1, SVG Export Plug-In . SVG Version: 6.00 Build 0)  -->
<svg version="1.1" xmlns="http://www.w3.org/2000/svg" xmlns:xlink="http://www.w3.org/1999/xlink" x="0px" y="0px"
	 viewBox="0 0 130.9 41.4" enable-background="new 0 0 130.9 41.4" xml:space="preserve">
<g id="Layer_1" display="none">
	
		<text transform="matrix(1 0 0 1 -2.0958 14.0397)" display="inline" fill="#3498DB" font-family="'Montserrat-Light'" font-size="20">Barry</text>
	
		<text transform="matrix(1 0 0 1 -0.5551 36.5656)" display="inline" fill="#3498DB" font-family="'Montserrat-Bold'" font-size="25">Champion</text>
</g>
<g id="Layer_1_copy">
	<g>
		<path fill="#3498DB" d="M5.9,0c2.8,0,4.5,1.3,4.5,3.5c0,1.6-0.9,2.8-2.6,3.2c2,0.3,3.2,1.6,3.2,3.5c0,2.4-1.9,3.8-5,3.8H0V0H5.9z
			 M1.6,6.1h4.2c1.9,0,3-0.8,3-2.3c0-1.4-1.1-2.2-3-2.2H1.6V6.1z M1.6,12.5h4.2c2.3,0,3.6-0.9,3.6-2.5c0-1.5-1.3-2.4-3.6-2.4H1.6
			V12.5z"/>
		<path fill="#3498DB" d="M20.7,12.4c-0.8,1.1-2.2,1.7-3.9,1.7c-2.2,0-3.6-1.4-3.6-3.2c0-1.8,1.5-3,3.9-3h3.5V7.3
			c0-1.5-1-2.5-2.8-2.5c-1.2,0-2.2,0.4-3.3,1.2l-0.7-1.1c1.4-0.9,2.5-1.4,4.3-1.4c2.6,0,4,1.4,4.1,3.6l0,7h-1.5V12.4z M20.6,10.4
			V9.1h-3.3c-1.8,0-2.7,0.5-2.7,1.7s0.9,1.9,2.4,1.9C18.9,12.8,20.2,11.9,20.6,10.4z"/>
		<path fill="#3498DB" d="M27.2,5.8c0.7-1.5,2-2.4,3.8-2.4V5c-2.2,0-3.6,1.3-3.8,3.4V14h-1.6V3.5h1.6V5.8z"/>
		<path fill="#3498DB" d="M34.7,5.8c0.7-1.5,2-2.4,3.8-2.4V5c-2.2,0-3.6,1.3-3.8,3.4V14h-1.6V3.5h1.6V5.8z"/>
		<path fill="#3498DB" d="M44.5,15.5c-0.7,1.6-1.8,2.5-3.2,2.5c-0.9,0-1.6-0.3-2.2-0.8l0.7-1.3c0.5,0.3,1,0.5,1.5,0.5
			c0.8,0,1.5-0.5,1.9-1.5l0.4-1L39.2,3.5h1.6l3.5,8.7l3.3-8.7h1.6L44.5,15.5z"/>
	</g>
	<g>
		<path fill="#3498DB" d="M16.4,21.9l-2.6,3c-1.1-1.4-2.8-2.3-4.4-2.3c-2.8,0-4.9,2.2-4.9,5.1c0,2.9,2.1,5.1,4.9,5.1
			c1.5,0,3.2-0.8,4.4-2l2.6,2.7c-1.9,1.9-4.6,3.2-7.2,3.2c-5.3,0-9.2-3.9-9.2-9c0-5,4-8.8,9.3-8.8C12,18.9,14.7,20.1,16.4,21.9z"/>
		<path fill="#3498DB" d="M32.4,28.1v8.5H28v-7.3c0-1.6-0.9-2.5-2.4-2.5c-1.7,0-2.7,1.3-2.7,3.2v6.6h-4.3V18h4.3v7.3
			c0.9-1.6,2.5-2.4,4.5-2.4C30.4,22.9,32.4,24.9,32.4,28.1z"/>
		<path fill="#3498DB" d="M47.3,27.8v8.8h-4.2V35c-0.9,1.1-2.3,1.8-4.1,1.8c-2.9,0-4.6-1.8-4.6-4.2c0-2.5,1.8-4,5.2-4.1h3.5v-0.2
			c0-1.3-0.9-2.1-2.6-2.1c-1.1,0-2.6,0.4-4,1.1l-1.2-2.8c2.1-1,4-1.5,6.2-1.5C45.2,22.9,47.3,24.7,47.3,27.8z M43.1,32v-1.2h-2.7
			c-1.3,0-1.9,0.4-1.9,1.4c0,1,0.7,1.6,1.9,1.6C41.7,33.8,42.8,33.1,43.1,32z"/>
		<path fill="#3498DB" d="M73.3,28.1v8.5H69v-7.3c0-1.6-0.9-2.6-2.3-2.6c-1.6,0-2.6,1.4-2.6,3.2v6.7h-4.3v-7.3
			c0-1.6-0.9-2.6-2.3-2.6c-1.6,0-2.7,1.4-2.7,3.2v6.7h-4.3V23.1h4.3v2.2c0.9-1.6,2.5-2.4,4.4-2.4c2.2,0,3.8,1.1,4.5,3
			c0.9-2,2.5-3,4.7-3C71.4,22.9,73.3,24.9,73.3,28.1z"/>
		<path fill="#3498DB" d="M91.1,29.9c0,4.1-2.4,6.8-6.2,6.8c-1.7,0-3.2-0.7-4.1-1.9v6.6h-4.3V23.1h4.3v1.8c0.9-1.2,2.3-1.9,4-1.9
			C88.6,22.9,91.1,25.7,91.1,29.9z M86.8,29.8c0-2-1.2-3.5-3-3.5c-1.7,0-3,1.4-3,3.5c0,2.1,1.2,3.5,3,3.5
			C85.6,33.3,86.8,31.8,86.8,29.8z"/>
		<path fill="#3498DB" d="M97.9,19.2c0,1.3-0.9,2.3-2.3,2.3s-2.3-0.9-2.3-2.3c0-1.3,0.9-2.3,2.3-2.3S97.9,17.9,97.9,19.2z
			 M93.5,36.6V23.1h4.3v13.5H93.5z"/>
		<path fill="#3498DB" d="M114.8,29.8c0,4.1-2.9,6.9-7.3,6.9c-4.4,0-7.4-2.7-7.4-6.9s2.9-6.9,7.4-6.9
			C111.9,22.9,114.8,25.7,114.8,29.8z M104.5,29.9c0,2.1,1.2,3.5,3,3.5c1.8,0,3-1.4,3-3.5c0-2.1-1.2-3.5-3-3.5
			C105.7,26.4,104.5,27.8,104.5,29.9z"/>
		<path fill="#3498DB" d="M130.9,28.1v8.5h-4.3v-7.3c0-1.6-0.9-2.5-2.4-2.5c-1.6,0-2.6,1.1-2.8,2.7v7.1h-4.3V23.1h4.3v2.2
			c1-1.6,2.5-2.4,4.5-2.4C129,22.9,130.9,24.9,130.9,28.1z"/>
	</g>
</g>
</svg>
