<?xml version="1.0" encoding="utf-8"?>
<!-- Generator: Adobe Illustrator 18.1.1, SVG Export Plug-In . SVG Version: 6.00 Build 0)  -->
<svg version="1.1" id="Layer_1" xmlns="http://www.w3.org/2000/svg" xmlns:xlink="http://www.w3.org/1999/xlink" x="0px" y="0px"
	 viewBox="0 0 112.2 71.3" enable-background="new 0 0 112.2 71.3" xml:space="preserve">
<g>
	<path fill="#FFFFFF" d="M33,0.8c15.7,0,25.6,6.8,25.6,17.4c0,7.4-4.6,13.3-12,15.4C55.4,35.2,61,42.1,61,51.2
		c0,11.9-10.4,19.3-26.8,19.3H0V0.8H33z M17.6,28.7H32c5.2,0,8.5-2.8,8.5-7.3s-3.3-7.1-8.5-7.1H17.6V28.7z M17.6,56.9H32
		c6.6,0,10.7-2.9,10.7-7.9c0-4.7-4.1-7.6-10.7-7.6H17.6V56.9z"/>
	<path fill="#FFFFFF" d="M112.1,11.9l-10.3,12.2C97.3,18.5,90.5,15,84.3,15c-11.1,0-19.4,8.8-19.4,20.2c0,11.7,8.4,20.5,19.4,20.5
		c5.9,0,12.7-3.2,17.5-8.2l10.4,11c-7.5,7.7-18.5,12.8-28.8,12.8c-21,0-36.7-15.5-36.7-35.9c0-20.1,16-35.3,37.3-35.3
		C94.4,0.2,105.1,4.7,112.1,11.9z"/>
</g>
</svg>
