<?xml version="1.0" encoding="utf-8"?>
<!-- Generator: Adobe Illustrator 18.1.1, SVG Export Plug-In . SVG Version: 6.00 Build 0)  -->
<svg version="1.1" id="Layer_1" xmlns="http://www.w3.org/2000/svg" xmlns:xlink="http://www.w3.org/1999/xlink" x="0px" y="0px"
	 viewBox="0 0 105 105" enable-background="new 0 0 105 105" xml:space="preserve">
<g display="none">
	<circle display="inline" fill="#FFFFFF" cx="52.5" cy="52.5" r="50.6"/>
	<circle display="inline" fill="#006EA7" cx="52.5" cy="52.5" r="50.6"/>
	<g display="inline">
		<rect x="33.4" y="40.6" fill="#FFFFFF" width="9.4" height="29.1"/>
		<path fill="#FFFFFF" d="M48.1,69.5V40.6h8.6v3.9c0,0,2.4-4.8,8.7-4.6c0,0,10.1-1.1,10.6,10.5v19.3h-8.9V52.7c0,0-0.1-5.6-5.1-4.9
			c0,0-4.3-0.2-4.8,5.2v16.5H48.1z"/>
		<circle fill="#FFFFFF" cx="38" cy="31.4" r="5.3"/>
	</g>
</g>
<g>
	<circle fill="#FFFFFF" cx="52.5" cy="52.5" r="50.7"/>
	<circle fill="#1F5790" cx="52.5" cy="52.2" r="50.7"/>
	<path fill="#FFFFFF" d="M46.2,82V55h-9V44.5h9v-9.4c0,0,0.4-10.9,11-12.2h10.7v9.7H61c0,0-3.6-0.1-3.9,4.2v7.8h10.6L66.2,55H57
		l0,27.1L46.2,82z"/>
</g>
</svg>
