<?xml version="1.0" encoding="utf-8"?>
<!-- Generator: Adobe Illustrator 18.1.1, SVG Export Plug-In . SVG Version: 6.00 Build 0)  -->
<svg version="1.1" id="Layer_1" xmlns="http://www.w3.org/2000/svg" xmlns:xlink="http://www.w3.org/1999/xlink" x="0px" y="0px"
	 viewBox="0 0 105 105" enable-background="new 0 0 105 105" xml:space="preserve">
<g display="none">
	<circle display="inline" fill="#FFFFFF" cx="52.5" cy="52.5" r="50.6"/>
	<circle display="inline" fill="#006EA7" cx="52.5" cy="52.5" r="50.6"/>
	<g display="inline">
		<rect x="33.4" y="40.6" fill="#FFFFFF" width="9.4" height="29.1"/>
		<path fill="#FFFFFF" d="M48.1,69.5V40.6h8.6v3.9c0,0,2.4-4.8,8.7-4.6c0,0,10.1-1.1,10.6,10.5v19.3h-8.9V52.7c0,0-0.1-5.6-5.1-4.9
			c0,0-4.3-0.2-4.8,5.2v16.5H48.1z"/>
		<circle fill="#FFFFFF" cx="38" cy="31.4" r="5.3"/>
	</g>
</g>
<g display="none">
	<circle display="inline" fill="#FFFFFF" cx="52.5" cy="52.5" r="50.7"/>
	<circle display="inline" fill="#1F5790" cx="52.5" cy="52.2" r="50.7"/>
	<path display="inline" fill="#FFFFFF" d="M46.2,82V55h-9V44.5h9v-9.4c0,0,0.4-10.9,11-12.2h10.7v9.7H61c0,0-3.6-0.1-3.9,4.2v7.8
		h10.6L66.2,55H57l0,27.1L46.2,82z"/>
</g>
<g display="none">
	<circle display="inline" fill="#FFFFFF" cx="52.5" cy="52.5" r="50.7"/>
	<g display="inline">
		<circle fill="#ED2E32" cx="52.5" cy="52.5" r="50.7"/>
		<g>
			<path fill="#FFFFFF" d="M51.5,56.3c0,0-3.3-2.7,0-5.5c0,0,4.9-2.9,6-7.8c0,0,1.5-6.7-4.5-10.7h3.9l4.6-2.6H44.3
				c0,0-9.4,0.1-12.3,7.6c0,0-2.7,6.1,1.4,11.2c0,0,2.6,3.6,7.5,4.1l3.4-0.1c0,0-2.1,3.3,1.3,7c0,0-11.5,0.2-15.2,4.8
				c0,0-6.5,6.1,0.5,12.7c0,0,4.7,4.3,16,2.8c0,0,8.3-1.4,12-8.1c0,0,3.1-6.1-2.1-11C56.8,60.8,53,57.2,51.5,56.3z M37.7,43.5
				c-1.6-5.1,0.1-10.1,3.7-11.3c3.7-1.2,7.9,2,9.5,7.1c1.6,5.1-0.1,10.1-3.7,11.3C43.6,51.8,39.3,48.6,37.7,43.5z M53.1,74.8
				c-5.5,4.5-12.7,1.9-12.7,1.9c-9.5-3.1-6.1-10.2-6.1-10.2c3.8-6.1,13.6-4.8,13.6-4.8l4.6,3.5C58.3,70.1,53.1,74.8,53.1,74.8z"/>
			<polygon fill="#FFFFFF" points="84,39 77.2,39 77.2,32.1 74,32.1 74,39 67.2,39 67.2,42.1 74,42.1 74,49 77.2,49 77.2,42.1 
				84,42.1 			"/>
		</g>
	</g>
</g>
<g display="none">
	<circle display="inline" fill="#FFFFFF" cx="52.5" cy="53.5" r="50.6"/>
	<g display="inline">
		<circle fill="#0098BA" cx="52.5" cy="52.5" r="50.6"/>
		<path fill="#FFFFFF" d="M35.8,57.9V33.3c0,0-0.7-7.6,6.1-7.6c0,0,6.1-0.5,6.1,4.8v7.6h20c0,0,5.1,1.2,4.6,6.9c0,0-0.6,5.1-5.8,5.5
			H48.1v6.7c0,0-0.2,5.4,4.6,5.4h13.9c0,0,5.8,0.1,6,6.6c0,0-0.3,5.5-6.1,6H52.9C52.9,75,35.8,74.1,35.8,57.9z"/>
	</g>
</g>
<g display="none">
	<circle display="inline" fill="#FFFFFF" cx="52.5" cy="53.5" r="50.7"/>
	<g display="inline">
		<circle fill="#4C3C38" cx="52.5" cy="52.5" r="50.7"/>
		<g>
			<path fill="#FFFFFF" d="M78,71.8c0,4.1-3.2,7.5-7.1,7.5H34.2c-3.9,0-7.1-3.3-7.1-7.5V34.3c0-4.1,3.2-7.5,7.1-7.5h36.7
				c3.9,0,7.1,3.3,7.1,7.5V71.8z"/>
			<g>
				<path fill="#4C3C38" d="M62.8,41.4v-6.9c0,0,0.1-1.4,1.4-1.4h7.1c0,0,1.3,0.1,1.3,1.3c0,1.2,0,7.3,0,7.3s-0.3,1.1-1.1,1.1
					s-7.4,0-7.4,0S62.8,42.7,62.8,41.4z"/>
				<path fill="#4C3C38" d="M32.4,48.9h5c0,0-2.8,9.7,5.1,16.2c0,0,4.2,3.8,10.4,3.7c0,0,7.6-0.3,11.7-5.5c0,0,5.3-6.2,3.3-14.5h4.8
					v22.8c0,0-0.1,1.5-1.5,1.5H33.8c0,0-1.5-0.3-1.5-1.5C32.4,70.5,32.4,48.9,32.4,48.9z"/>
				<circle fill="#4C3C38" cx="52.6" cy="53.1" r="10"/>
			</g>
		</g>
	</g>
</g>
<g display="none">
	<circle display="inline" fill="#FFFFFF" cx="52.5" cy="52.5" r="50.7"/>
	<g display="inline">
		<circle fill="#F16522" cx="52.5" cy="52.5" r="50.7"/>
		<g>
			<path fill="#FFFFFF" d="M16.3,54.9l0.5-3.7c0,0,0.3-0.7,0.6-0.1l0.6,3.8c0,0,0,0.3,0,0.6l-0.6,3.7c0,0-0.2,0.5-0.6,0l-0.5-3.7
				C16.3,55.4,16.2,55,16.3,54.9z"/>
			<path fill="#FFFFFF" d="M18.9,54.8l0.6-6c0,0,0.3-1.1,0.7-0.1l0.7,6c0,0,0,0.5,0,0.9l-0.7,5.9c0,0-0.2,0.9-0.7,0l-0.6-5.9
				C18.9,55.6,18.8,55,18.9,54.8z"/>
			<path fill="#FFFFFF" d="M21.7,54.6l0.6-7c0,0,0.3-1.2,0.7-0.1l0.7,7.1c0,0,0,0.6,0,1l-0.7,6.9c0,0-0.2,1-0.7,0l-0.6-6.9
				C21.7,55.6,21.6,54.9,21.7,54.6z"/>
			<path fill="#FFFFFF" d="M24.5,54.7l0.6-7.2c0,0,0.3-1.3,0.7-0.1l0.8,7.3c0,0,0,0.6,0,1.1l-0.8,7.2c0,0-0.2,1.1-0.7,0l-0.6-7.2
				C24.5,55.7,24.4,55,24.5,54.7z"/>
			<path fill="#FFFFFF" d="M27.4,55l0.6-7.1c0,0,0.3-1.3,0.8-0.1l0.8,7.2c0,0,0.1,0.6,0,1.1l-0.8,7c0,0-0.2,1-0.7,0L27.3,56
				C27.3,56,27.3,55.3,27.4,55z"/>
			<path fill="#FFFFFF" d="M30.2,54.7l0.6-11.6c0,0,0.5-0.9,1,0l0.6,11.6c0,0,0,0.7,0,0.9L31.8,63c0,0-0.6,1-1.1-0.1l-0.6-7.3
				C30.2,55.5,30.2,54.9,30.2,54.7z"/>
			<path fill="#FFFFFF" d="M33.6,62.8l-0.5-7.3c0,0,0-1.1,0-1.5l0.5-13.4c0,0,0.5-1.4,1.2-0.2L35.4,54c0,0,0.1,1,0,1.6l-0.6,7.3
				C34.8,62.9,34.2,64.1,33.6,62.8z"/>
			<path fill="#FFFFFF" d="M36.6,62.9l-0.5-7.2c0,0-0.1-1.2,0-1.5l0.5-15c0,0,0.7-1.3,1.3,0l0.5,15.1c0,0,0.2,1,0,1.5L37.9,63
				C37.9,63,37.2,63.9,36.6,62.9z"/>
			<path fill="#FFFFFF" d="M39.5,62.9L39,55.7c0,0-0.2-1.1,0-1.5c0.1-0.3,0.5-15.7,0.5-15.7s0.8-1.2,1.4,0l0.6,15.7
				c0,0,0.1,1.2,0,1.6l-0.5,7.3C40.9,63.1,40.2,64,39.5,62.9z"/>
			<path fill="#FFFFFF" d="M42.4,62.8L42,55.6c0,0-0.1-1.5,0-1.9l0.5-14.8c0,0,0.6-1.2,1.5-0.1l0.5,14.9c0,0,0.1,0.9,0,1.9L44,62.9
				C44,62.9,43.2,64.2,42.4,62.8z"/>
			<path fill="#FFFFFF" d="M47,62.9c0,0-0.7,1.4-1.7,0L45,55.5c0,0,0-1.2,0-1.7l0.4-14.2c0,0,0.7-1.6,1.6-0.2l0.4,14.5
				c0,0,0.2,1.2,0,1.8L47,62.9z"/>
			<path fill="#FFFFFF" d="M48.5,62.8L48,55.4c0,0,0-1.4,0-2c0-0.6,0.3-16.9,0.3-16.9s0.8-1.5,1.8-0.2l0.4,17.4c0,0,0,1.1,0,2.1
				l-0.4,6.9C50.1,62.9,49.3,64.4,48.5,62.8z"/>
			<path fill="#FFFFFF" d="M53.3,62.7c0,0-0.9,1.7-1.9,0L51,55.9c0,0-0.1-2,0-2.8l0.4-18.3c0,0,0.7-1.7,1.9-0.1l0.4,19
				c0,0,0,1.6,0,2.6L53.3,62.7z"/>
			<path fill="#FFFFFF" d="M54.2,62.6V34.1c0,0,0-0.7,0.6-1c0,0,17.1-6.2,21.8,13c0,0,10.3-3.1,12.1,7.9c0,0,0.2,8.5-8.4,9.4H55.4
				C55.4,63.5,54.3,63.6,54.2,62.6z"/>
		</g>
	</g>
</g>
<g display="none">
	<circle display="inline" fill="#FFFFFF" cx="52.5" cy="52.5" r="50.6"/>
	<g display="inline">
		<circle fill="#ED2E32" cx="52.5" cy="52.5" r="50.6"/>
		<path fill="#FFFFFF" d="M27.5,72.3c0,0-0.8-16.8,0.5-20c0,0,1-4.6,5.1-5.7c0,0,17.2-2,40.7,0c0,0,4.6,0.9,5.2,5.9
			c0,0,1.9,13.9-0.1,23.5c0,0-0.5,4.9-6.2,5.6c0,0-22.4,1.7-38.7,0C34,81.5,27.7,81.5,27.5,72.3z"/>
		<g>
			<polygon fill="#FFFFFF" points="41,28.3 38.5,19 34.6,19 39.1,33.1 39.1,42.7 42.6,42.7 42.6,33.1 46.9,18.9 43.5,18.9 			"/>
			<path fill="#FFFFFF" d="M65.1,25v13.6c-2.7,2.7-2.8,0.6-2.8,0.6V25.1h-3.1l-0.1,14.9c0,1.6,0.6,2.2,0.6,2.2
				c2.4,2.4,5.4-1.3,5.4-1.3v1.8h3.1V25H65.1z"/>
			<path fill="#FFFFFF" d="M51.7,24.6c-4.7,0-4.6,4.8-4.6,4.8s0,4.7,0,9.1c0,4.4,4.6,4.3,4.6,4.3c4.9,0,4.7-4.5,4.7-4.5v-9.2
				C56.4,24.3,51.7,24.6,51.7,24.6z M53,38.1c0,0,0.1,1.7-1.2,1.7c0,0-1.5,0.4-1.5-1.7v-8.9c0,0-0.1-1.4,1.4-1.4
				c0,0,1.3-0.1,1.3,1.5V38.1z"/>
		</g>
		<g>
			<path fill="#ED2B36" d="M41.8,58l3.2,0v14.5c0,0-0.1,2.3,2.8-0.6V57.9h3.3v18h-3.3V74c0,0-6.1,5.5-6.1-1
				C41.8,66.4,41.8,58,41.8,58z"/>
			<polygon fill="#ED2B36" points="33.9,75.8 33.9,55.3 30.1,55.3 30.1,51.9 41.3,51.9 41.3,55.3 37.5,55.3 37.5,75.8 			"/>
			<path fill="#ED2B36" d="M57.1,59.6V52h-3.3v23.9l3.3,0v-1.8c5.9,4.9,6.2-1.4,6.2-1.4V61.6C62.9,54.3,57.1,59.6,57.1,59.6z
				 M60.1,71.8c0,0-0.3,1.9-3,0.4V61.4c0,0,3-2.2,3,0.8C60.1,65.2,60.1,71.8,60.1,71.8z"/>
			<path fill="#ED2B36" d="M75.5,67.5v-5.1c0,0-0.3-4.7-4.7-4.7c0,0-4.9-0.1-4.9,4.9c0,5,0,8.9,0,8.9S66,76,71.1,76
				c0,0,4.3-0.2,4.3-3.9v-2.5h-3.2v1.8c0,0-0.1,1.7-1.4,1.7c0,0-1.7,0.2-1.7-1.9c0-2.2,0-3.6,0-3.6H75.5z M69.1,62.5
				c0,0,0-1.9,1.5-1.9c1.5,0,1.7,1.9,1.7,1.9v2.2h-3.2L69.1,62.5z"/>
		</g>
	</g>
</g>
<path fill-rule="evenodd" clip-rule="evenodd" fill="#181616" d="M52.5,2C24.6,2,2,25.2,2,53.8c0,22.9,14.5,42.3,34.5,49.1
	c2.5,0.5,3.4-1.1,3.4-2.5c0-1.2,0-4.5-0.1-8.8c-14,3.1-17-6.9-17-6.9c-2.3-6-5.6-7.6-5.6-7.6c-4.6-3.2,0.3-3.1,0.3-3.1
	c5.1,0.4,7.7,5.3,7.7,5.3c4.5,7.9,11.8,5.6,14.7,4.3c0.5-3.3,1.8-5.6,3.2-6.9c-11.2-1.3-23-5.7-23-25.6c0-5.7,2-10.3,5.2-13.9
	c-0.5-1.3-2.3-6.6,0.5-13.7c0,0,4.2-1.4,13.9,5.3c4-1.1,8.3-1.7,12.6-1.7c4.3,0,8.6,0.6,12.6,1.7c9.6-6.7,13.9-5.3,13.9-5.3
	c2.8,7.1,1,12.4,0.5,13.7c3.2,3.6,5.2,8.2,5.2,13.9c0,19.9-11.8,24.3-23.1,25.6c1.8,1.6,3.4,4.8,3.4,9.6c0,6.9-0.1,12.5-0.1,14.2
	c0,1.4,0.9,3,3.5,2.5C88.5,96,103,76.7,103,53.8C103,25.2,80.4,2,52.5,2z"/>
</svg>
